<?xml version="1.0" encoding="iso-8859-1"?>
<svg version="1.1" xmlns="http://www.w3.org/2000/svg" xmlns:xlink="http://www.w3.org/1999/xlink" x="0px" y="0px"
	 viewBox="0 0 60 60" style="enable-background:new 0 0 60 60;" xml:space="preserve">
<g>
	<path d="M52,0H8C5.8,0,4,1.8,4,4v52c0,2.2,1.8,4,4,4h44c2.2,0,4-1.8,4-4V4C56,1.8,54.2,0,52,0z M54,56c0,1.1-0.9,2-2,2H8
		c-1.1,0-2-0.9-2-2V4c0-1.1,0.9-2,2-2h44c1.1,0,2,0.9,2,2V56z"/>
	<rect x="12" y="12" width="36" height="2"/>
	<rect x="12" y="20" width="36" height="2"/>
	<rect x="12" y="28" width="24" height="2"/>
	<rect x="12" y="36" width="36" height="2"/>
	<rect x="12" y="44" width="36" height="2"/>
	<rect x="12" y="52" width="20" height="2"/>
</g>
</svg>
